HIERARCHY
ROOT Hips
{
    OFFSET 0.000000 0.000000 0.000000
    CHANNELS 6 Xposition Yposition Zposition Zrotation Xrotation Yrotation
        JOINT Spine1
        {
            OFFSET -0.000000 23.269398 0.000000
            CHANNELS 3 Zrotation Xrotation Yrotation
            JOINT Neck
            {
                OFFSET -0.000000 18.032967 0.000000
                CHANNELS 3 Zrotation Xrotation Yrotation
                JOINT Head
                {
                    OFFSET -0.000000 13.091072 1.689171
                    CHANNELS 3 Zrotation Xrotation Yrotation
                    End Site
                    {
                        OFFSET -0.000000 16.891708 0.000000
                    }
                }
            }
            JOINT LeftShoulder
            {
                OFFSET 3.336773 14.146137 -0.012206
                CHANNELS 3 Zrotation Xrotation Yrotation
                JOINT LeftArm
                {
                    OFFSET 11.765518 0.000000 0.000000
                    CHANNELS 3 Zrotation Xrotation Yrotation
                    JOINT LeftForeArm
                    {
                        OFFSET 25.163450 0.000000 0.000000
                        CHANNELS 3 Zrotation Xrotation Yrotation
                        JOINT LeftHand
                        {
                            OFFSET 21.783554 0.000000 0.000000
                            CHANNELS 3 Zrotation Xrotation Yrotation
                            End Site
                            {
                                OFFSET 12.668781 0.000000 0.000000
                            }
                        }
                    }
                }
            }
            JOINT RightShoulder
            {
                OFFSET -3.409204 14.146137 -0.012206
                CHANNELS 3 Zrotation Xrotation Yrotation
                JOINT RightArm
                {
                    OFFSET -11.765518 0.000000 0.000000
                    CHANNELS 3 Zrotation Xrotation Yrotation
                    JOINT RightForeArm
                    {
                        OFFSET -25.163450 0.000000 0.000000
                        CHANNELS 3 Zrotation Xrotation Yrotation
                        JOINT RightHand
                        {
                            OFFSET -21.783554 0.000000 0.000000
                            CHANNELS 3 Zrotation Xrotation Yrotation
                            End Site
                            {
                                OFFSET -12.668781 0.000000 0.000000
                            }
                        }
                    }
                }
            }
        }
        JOINT LeftUpLeg
    {
        OFFSET 8.445854 0.000000 0.000000
        CHANNELS 3 Zrotation Xrotation Yrotation
        JOINT LeftLeg
        {
            OFFSET -0.000000 -40.674755 0.000000
            CHANNELS 3 Zrotation Xrotation Yrotation
            JOINT LeftFoot
            {
                OFFSET -0.000000 -37.111794 0.000000
                CHANNELS 3 Zrotation Xrotation Yrotation
                JOINT LeftToeBase
                {
                    OFFSET -0.000000 -5.489805 12.668781
                    CHANNELS 3 Zrotation Xrotation Yrotation
                    End Site
                    {
                        OFFSET -0.000000 0.000000 3.378341
                    }
                }
            }
        }
    }
    JOINT RightUpLeg
    {
        OFFSET -8.445854 0.000000 0.000000
        CHANNELS 3 Zrotation Xrotation Yrotation
        JOINT RightLeg
        {
            OFFSET -0.000000 -40.674755 0.000000
            CHANNELS 3 Zrotation Xrotation Yrotation
            JOINT RightFoot
            {
                OFFSET -0.000000 -37.111794 0.000000
                CHANNELS 3 Zrotation Xrotation Yrotation
                JOINT RightToeBase
                {
                    OFFSET -0.000000 -5.489805 12.668781
                    CHANNELS 3 Zrotation Xrotation Yrotation
                    End Site
                    {
                        OFFSET -0.000000 0.000000 3.378341
                    }
                }
            }
        }
    }
}
MOTION
Frames:    6
Frame Time:    0.008333
23.437044    84.794846    175.352051    1.668543    -2.869453    1.134237    -1.055603    6.386241    -1.354777    -0.097746    0.051313    -0.150774    -3.098529    2.054474    0.285321    0.558127    7.176887    8.587018    -49.517056    36.849575    -40.546131    0.904731    2.046434    -7.169906    -8.077041    2.734325    -8.930228    -1.526124    8.568233    -1.827168    44.180683    41.391277    38.478321    -0.447169    1.059854    20.886984    -12.033940    0.483752    6.241885    3.023805    -0.961376    -15.294118    -0.371215    10.775208    14.029204    -6.884367    -6.603259    14.885653    -2.535385    -3.132360    0.347372    -0.866772    3.709661    -0.817134    -6.723344    5.211002    5.702986    4.966974    -5.841052    4.477973    0.689743    -2.213245    2.096526    
23.487675    84.791588    175.368378    1.648766    -2.876362    1.103844    -1.037964    6.391308    -1.484608    -0.052963    0.022355    -0.181868    -3.110381    2.320760    0.268105    0.549178    7.202543    8.563996    -49.313141    37.082253    -40.704887    0.957052    1.963731    -7.461465    -8.453240    2.695442    -9.045506    -1.517722    8.565914    -1.819486    44.134098    41.430008    38.562958    -0.332285    1.032075    21.047544    -12.176340    0.439285    6.131049    2.993840    -0.948198    -15.269326    -0.352103    10.800463    14.020205    -6.831183    -6.603725    14.894492    -2.540835    -3.153830    0.312310    -0.866010    3.677792    -0.800402    -6.766820    5.304110    5.703328    5.009569    -5.888421    4.502935    0.687001    -2.219993    2.119815    
23.530487    84.789604    175.384369    1.624640    -2.881029    1.072747    -1.028809    6.390155    -1.605897    0.044256    0.037502    -0.119795    -3.245719    2.560814    0.371749    0.561902    7.246690    8.558353    -49.089634    37.272415    -40.920734    0.948997    1.859143    -7.716401    -8.664671    2.614170    -9.109584    -1.485538    8.553937    -1.808089    45.573997    40.446480    38.074799    -0.441272    1.702465    20.290615    -12.108970    1.062622    6.770624    2.973308    -0.928747    -15.259008    -0.336261    10.813714    13.998709    -6.771573    -6.624819    14.933781    -2.541924    -3.131334    0.370262    -0.888146    3.685779    -0.797499    -6.758015    5.335620    6.637323    4.945371    -6.005695    3.613825    0.698648    -2.230438    2.102252    
23.565731    84.787079    175.397369    1.598232    -2.876168    1.047796    -1.017778    6.402025    -1.736170    0.095966    0.039002    -0.059851    -3.322762    2.780873    0.458380    0.587329    7.212872    8.507282    -48.886730    37.473221    -41.029366    0.959623    1.785102    -8.011600    -8.799870    2.553174    -9.096328    -1.460625    8.545637    -1.785638    45.578285    40.514351    38.129509    -0.540707    1.714951    20.385107    -12.075850    1.085207    6.866072    2.963260    -0.926405    -15.285254    -0.325304    10.825938    14.013900    -6.756295    -6.626601    14.967683    -2.525236    -3.122315    0.340075    -0.903763    3.694057    -0.770508    -6.727595    5.319923    6.613780    4.944398    -5.994042    3.634764    0.695780    -2.231219    2.113554    
23.592604    84.778992    175.412079    1.537248    -2.914170    1.039076    -0.961562    6.442040    -1.881307    0.122113    0.036448    -0.114707    -3.310631    3.004755    0.410194    0.597100    7.205533    8.441823    -48.671589    37.686283    -41.116997    1.084441    1.676100    -8.335638    -9.000884    2.471170    -9.084197    -1.454117    8.579415    -1.781019    44.136501    41.589584    38.738697    -0.412047    0.994871    21.404367    -12.436790    0.399384    6.173969    2.993260    -0.879679    -15.354996    -0.320728    10.839489    14.066393    -6.707736    -6.622894    14.990323    -2.540650    -3.131622    0.365592    -0.856883    3.753033    -0.782641    -6.729051    5.270332    5.770029    5.071263    -5.902210    4.505376    0.691667    -2.221649    2.107522    
23.617809    84.777740    175.424835    1.504823    -2.900595    1.006483    -0.938050    6.437323    -1.986150    0.136444    0.043872    -0.091676    -3.279368    3.196582    0.436333    0.600694    7.215962    8.417263    -48.371460    37.917679    -41.269524    1.028990    1.238364    -8.920402    -8.840206    1.950598    -8.164785    -1.451338    8.566457    -1.777098    44.141434    41.637348    38.773865    -0.373110    0.973452    21.580366    -12.515468    0.375981    6.091525    2.994725    -0.877207    -15.407635    -0.310309    10.840115    14.125862    -6.692213    -6.618519    15.010877    -2.175361    -2.941408    -0.304955    -0.859995    3.770695    -0.757515    -6.699287    5.215104    5.752512    5.072423    -5.878963    4.524680    0.700549    -2.241240    2.118320    
